<svg width="359" height="359" viewBox="0 0 359 359" fill="none" xmlns="http://www.w3.org/2000/svg">
<g filter="url(#filter0_d_84_379)">
<path d="M355 175.5C355 272.426 276.426 351 179.5 351C82.574 351 4 272.426 4 175.5C4 78.574 82.574 0 179.5 0C276.426 0 355 78.574 355 175.5ZM56.65 175.5C56.65 243.348 111.652 298.35 179.5 298.35C247.348 298.35 302.35 243.348 302.35 175.5C302.35 107.652 247.348 52.65 179.5 52.65C111.652 52.65 56.65 107.652 56.65 175.5Z" fill="#C4C4C4"/>
<path d="M179.5 0C159.983 -2.32732e-07 140.604 3.25536 122.158 9.63207L139.361 59.3925C152.273 54.9288 165.838 52.65 179.5 52.65V0Z" fill="#77BD80"/>
<g filter="url(#filter1_d_84_379)">
<path d="M303.597 299.597C283.189 320.005 258.063 335.065 230.445 343.443C202.827 351.821 173.568 353.258 145.262 347.628C116.955 341.997 90.4739 329.473 68.1639 311.163C45.854 292.854 28.4038 269.325 17.3591 242.661C6.31444 215.997 2.01619 187.02 4.84509 158.298C7.674 129.576 17.5427 101.994 33.5772 77.9973C49.6116 54.0002 71.3167 34.3278 96.77 20.7227C122.223 7.11772 150.639 -2.78682e-05 179.5 0L179.5 52.65C159.297 52.65 139.406 57.6324 121.589 67.1559C103.772 76.6795 88.5781 90.4501 77.354 107.248C66.1299 124.046 59.2218 143.353 57.2416 163.459C55.2613 183.564 58.2701 203.848 66.0014 222.513C73.7327 241.178 85.9478 257.648 101.565 270.464C117.182 283.281 135.719 292.048 155.533 295.989C175.348 299.931 195.829 298.925 215.161 293.06C234.494 287.196 252.083 276.654 266.368 262.368L303.597 299.597Z" fill="#FD3C4F"/>
</g>
<path d="M104.253 162.858C103.593 163.87 102.801 164.486 101.877 164.706C100.997 164.926 100.139 164.86 99.3032 164.508C98.4672 164.156 97.7632 163.584 97.1912 162.792C96.6632 161.956 96.4432 161.01 96.5312 159.954C96.5752 159.25 96.7512 158.48 97.0592 157.644C97.3672 156.808 97.7412 156.016 98.1812 155.268C98.6652 154.476 99.1712 153.75 99.6992 153.09C100.271 152.386 100.843 151.792 101.415 151.308C102.471 150.472 103.659 149.746 104.979 149.13C106.343 148.514 107.751 148.052 109.203 147.744C110.699 147.436 112.173 147.304 113.625 147.348C115.121 147.392 116.507 147.612 117.783 148.008C121.303 149.108 124.031 150.846 125.967 153.222C127.903 155.598 128.871 158.678 128.871 162.462C128.871 164.266 128.695 165.894 128.343 167.346C128.035 168.754 127.463 170.118 126.627 171.438C125.835 172.758 124.757 174.1 123.393 175.464C122.073 176.828 120.423 178.324 118.443 179.952C117.783 180.524 117.101 181.096 116.397 181.668C115.693 182.24 114.989 182.812 114.285 183.384C114.065 183.56 113.647 183.824 113.031 184.176C112.415 184.528 111.865 184.88 111.381 185.232C110.897 185.584 110.611 185.914 110.523 186.222C110.435 186.53 110.787 186.706 111.579 186.75C112.547 186.838 113.317 186.86 113.889 186.816C114.461 186.772 115.231 186.75 116.199 186.75C117.343 186.75 118.465 186.728 119.565 186.684C120.665 186.64 121.765 186.662 122.865 186.75C123.305 186.794 123.789 186.816 124.317 186.816C124.845 186.772 125.373 186.772 125.901 186.816C126.429 186.816 126.935 186.882 127.419 187.014C127.903 187.102 128.321 187.3 128.673 187.608C129.025 187.916 129.289 188.334 129.465 188.862C129.641 189.39 129.729 189.962 129.729 190.578C129.773 191.15 129.729 191.722 129.597 192.294C129.465 192.822 129.245 193.24 128.937 193.548C128.365 194.208 127.661 194.538 126.825 194.538C125.989 194.494 125.197 194.472 124.449 194.472H100.755C100.315 194.472 99.8312 194.494 99.3032 194.538C98.8192 194.582 98.3792 194.538 97.9832 194.406C97.1912 194.186 96.7952 193.768 96.7952 193.152C96.8392 192.536 96.8612 191.898 96.8612 191.238C96.8612 190.138 97.1252 189.126 97.6532 188.202C98.1812 187.234 98.8412 186.354 99.6332 185.562C100.469 184.726 101.349 183.956 102.273 183.252C103.197 182.548 104.055 181.866 104.847 181.206C105.991 180.194 107.223 179.182 108.543 178.17C109.863 177.158 111.117 176.146 112.305 175.134C113.845 173.858 115.143 172.692 116.199 171.636C117.299 170.58 118.179 169.59 118.839 168.666C119.499 167.742 119.983 166.84 120.291 165.96C120.599 165.036 120.753 164.068 120.753 163.056C120.753 160.812 120.071 159.096 118.707 157.908C117.343 156.676 115.605 156.06 113.493 156.06C111.953 156.06 110.501 156.39 109.137 157.05C107.817 157.71 106.717 158.678 105.837 159.954C105.573 160.438 105.309 160.944 105.045 161.472C104.825 161.956 104.561 162.418 104.253 162.858ZM136.195 154.674C135.623 154.146 135.337 153.354 135.337 152.298C135.381 151.814 135.469 151.352 135.601 150.912C135.733 150.428 135.975 150.01 136.327 149.658C137.295 148.778 138.329 148.272 139.429 148.14C140.529 148.008 141.717 147.898 142.993 147.81C144.005 147.766 144.907 147.766 145.699 147.81C146.491 147.81 147.393 147.81 148.405 147.81C149.945 147.81 151.617 147.832 153.421 147.876C155.269 147.92 157.007 147.986 158.635 148.074C159.295 148.118 159.955 148.206 160.615 148.338C161.275 148.47 161.869 148.712 162.397 149.064C162.925 149.372 163.343 149.79 163.651 150.318C164.003 150.802 164.201 151.418 164.245 152.166C164.289 153.046 164.157 153.882 163.849 154.674C163.585 155.466 163.211 156.236 162.727 156.984C162.243 157.688 161.693 158.37 161.077 159.03C160.505 159.646 159.955 160.218 159.427 160.746C158.459 161.758 157.359 162.836 156.127 163.98C154.895 165.124 153.795 166.202 152.827 167.214C154.543 167.434 156.193 167.83 157.777 168.402C159.405 168.974 160.835 169.766 162.067 170.778C163.299 171.79 164.267 173.066 164.971 174.606C165.719 176.102 166.093 177.906 166.093 180.018C166.093 182.13 165.675 184.088 164.839 185.892C164.047 187.696 162.925 189.28 161.473 190.644C160.021 191.964 158.305 192.998 156.325 193.746C154.345 194.494 152.167 194.868 149.791 194.868C148.779 194.868 147.679 194.78 146.491 194.604C145.347 194.428 144.203 194.164 143.059 193.812C141.915 193.46 140.815 193.02 139.759 192.492C138.747 191.92 137.867 191.238 137.119 190.446C136.591 189.918 136.129 189.302 135.733 188.598C135.381 187.85 135.161 187.102 135.073 186.354C135.029 185.562 135.183 184.858 135.535 184.242C135.887 183.582 136.503 183.098 137.383 182.79C138.043 182.57 138.681 182.482 139.297 182.526C139.913 182.57 140.507 182.724 141.079 182.988C141.651 183.208 142.201 183.472 142.729 183.78C143.301 184.088 143.851 184.396 144.379 184.704C146.007 185.716 147.701 186.31 149.461 186.486C151.265 186.662 153.025 186.244 154.741 185.232C155.709 184.66 156.413 183.956 156.853 183.12C157.293 182.24 157.469 181.36 157.381 180.48C157.337 179.6 157.051 178.764 156.523 177.972C156.039 177.18 155.357 176.52 154.477 175.992C153.641 175.508 152.717 175.178 151.705 175.002C150.693 174.826 149.681 174.65 148.669 174.474C147.657 174.298 146.689 174.056 145.765 173.748C144.841 173.44 144.049 172.912 143.389 172.164C142.641 171.328 142.399 170.426 142.663 169.458C142.927 168.49 143.411 167.544 144.115 166.62C144.863 165.696 145.677 164.816 146.557 163.98C147.481 163.144 148.207 162.44 148.735 161.868C149.043 161.56 149.395 161.186 149.791 160.746C150.231 160.306 150.627 159.866 150.979 159.426C151.375 158.986 151.705 158.568 151.969 158.172C152.277 157.732 152.475 157.336 152.563 156.984C152.695 156.632 152.629 156.39 152.365 156.258C152.101 156.082 151.771 155.994 151.375 155.994C150.979 155.95 150.539 155.95 150.055 155.994C149.615 155.994 149.263 155.994 148.999 155.994H144.577C143.961 155.994 143.279 156.016 142.531 156.06C141.783 156.06 141.013 156.038 140.221 155.994C139.473 155.906 138.725 155.774 137.977 155.598C137.273 155.422 136.679 155.114 136.195 154.674ZM180.666 184.44C180.666 185.584 180.248 186.574 179.412 187.41C178.62 188.202 177.652 188.598 176.508 188.598C175.364 188.598 174.374 188.202 173.538 187.41C172.746 186.574 172.35 185.584 172.35 184.44C172.35 183.296 172.746 182.306 173.538 181.47C174.374 180.634 175.364 180.216 176.508 180.216C177.652 180.216 178.62 180.634 179.412 181.47C180.248 182.306 180.666 183.296 180.666 184.44ZM180.666 160.02C180.666 161.164 180.248 162.154 179.412 162.99C178.62 163.782 177.652 164.178 176.508 164.178C175.364 164.178 174.374 163.782 173.538 162.99C172.746 162.154 172.35 161.164 172.35 160.02C172.35 158.876 172.746 157.886 173.538 157.05C174.374 156.214 175.364 155.796 176.508 155.796C177.652 155.796 178.62 156.214 179.412 157.05C180.248 157.886 180.666 158.876 180.666 160.02ZM214.484 148.932C214.792 149.416 214.99 150.032 215.078 150.78C215.298 152.32 215.386 153.904 215.342 155.532C215.342 157.116 215.364 158.678 215.408 160.218C215.408 162.022 215.408 163.804 215.408 165.564C215.452 167.324 215.474 169.106 215.474 170.91V176.52H218.312C218.796 176.52 219.302 176.586 219.83 176.718C220.358 176.806 220.842 176.982 221.282 177.246C221.722 177.51 222.096 177.84 222.404 178.236C222.712 178.632 222.888 179.116 222.932 179.688C222.932 181.096 222.492 182.064 221.612 182.592C220.732 183.076 219.676 183.362 218.444 183.45C218.356 183.45 218.158 183.472 217.85 183.516C217.586 183.516 217.278 183.516 216.926 183.516C216.574 183.516 216.244 183.516 215.936 183.516C215.672 183.516 215.518 183.472 215.474 183.384V187.872C215.474 188.356 215.474 188.906 215.474 189.522C215.474 190.138 215.43 190.754 215.342 191.37C215.254 191.942 215.078 192.492 214.814 193.02C214.594 193.548 214.242 193.966 213.758 194.274C213.538 194.406 213.252 194.516 212.9 194.604C212.592 194.648 212.24 194.692 211.844 194.736C211.448 194.78 211.052 194.802 210.656 194.802C210.304 194.758 209.996 194.692 209.732 194.604C208.94 194.34 208.434 193.79 208.214 192.954C207.994 192.074 207.84 191.26 207.752 190.512C207.752 190.38 207.752 189.962 207.752 189.258C207.752 188.51 207.752 187.74 207.752 186.948C207.752 186.112 207.73 185.364 207.686 184.704C207.642 184.044 207.576 183.714 207.488 183.714H195.872C194.596 183.714 193.254 183.692 191.846 183.648C190.438 183.604 189.228 183.208 188.216 182.46C187.424 181.888 186.962 181.25 186.83 180.546C186.698 179.798 186.742 179.072 186.962 178.368C187.226 177.62 187.6 176.894 188.084 176.19C188.568 175.486 189.03 174.848 189.47 174.276C191.142 172.032 192.748 169.744 194.288 167.412C195.872 165.08 197.456 162.77 199.04 160.482C199.92 159.294 200.822 158.15 201.746 157.05C202.714 155.95 203.616 154.806 204.452 153.618C205.068 152.694 205.728 151.748 206.432 150.78C207.18 149.812 208.104 149.064 209.204 148.536C210.26 148.052 211.272 147.81 212.24 147.81C213.208 147.81 213.956 148.184 214.484 148.932ZM207.95 160.812L196.994 176.256H207.95V160.812ZM235.995 162.858C235.335 163.87 234.543 164.486 233.619 164.706C232.739 164.926 231.881 164.86 231.045 164.508C230.209 164.156 229.505 163.584 228.933 162.792C228.405 161.956 228.185 161.01 228.273 159.954C228.317 159.25 228.493 158.48 228.801 157.644C229.109 156.808 229.483 156.016 229.923 155.268C230.407 154.476 230.913 153.75 231.441 153.09C232.013 152.386 232.585 151.792 233.157 151.308C234.213 150.472 235.401 149.746 236.721 149.13C238.085 148.514 239.493 148.052 240.945 147.744C242.441 147.436 243.915 147.304 245.367 147.348C246.863 147.392 248.249 147.612 249.525 148.008C253.045 149.108 255.773 150.846 257.709 153.222C259.645 155.598 260.613 158.678 260.613 162.462C260.613 164.266 260.437 165.894 260.085 167.346C259.777 168.754 259.205 170.118 258.369 171.438C257.577 172.758 256.499 174.1 255.135 175.464C253.815 176.828 252.165 178.324 250.185 179.952C249.525 180.524 248.843 181.096 248.139 181.668C247.435 182.24 246.731 182.812 246.027 183.384C245.807 183.56 245.389 183.824 244.773 184.176C244.157 184.528 243.607 184.88 243.123 185.232C242.639 185.584 242.353 185.914 242.265 186.222C242.177 186.53 242.529 186.706 243.321 186.75C244.289 186.838 245.059 186.86 245.631 186.816C246.203 186.772 246.973 186.75 247.941 186.75C249.085 186.75 250.207 186.728 251.307 186.684C252.407 186.64 253.507 186.662 254.607 186.75C255.047 186.794 255.531 186.816 256.059 186.816C256.587 186.772 257.115 186.772 257.643 186.816C258.171 186.816 258.677 186.882 259.161 187.014C259.645 187.102 260.063 187.3 260.415 187.608C260.767 187.916 261.031 188.334 261.207 188.862C261.383 189.39 261.471 189.962 261.471 190.578C261.515 191.15 261.471 191.722 261.339 192.294C261.207 192.822 260.987 193.24 260.679 193.548C260.107 194.208 259.403 194.538 258.567 194.538C257.731 194.494 256.939 194.472 256.191 194.472H232.497C232.057 194.472 231.573 194.494 231.045 194.538C230.561 194.582 230.121 194.538 229.725 194.406C228.933 194.186 228.537 193.768 228.537 193.152C228.581 192.536 228.603 191.898 228.603 191.238C228.603 190.138 228.867 189.126 229.395 188.202C229.923 187.234 230.583 186.354 231.375 185.562C232.211 184.726 233.091 183.956 234.015 183.252C234.939 182.548 235.797 181.866 236.589 181.206C237.733 180.194 238.965 179.182 240.285 178.17C241.605 177.158 242.859 176.146 244.047 175.134C245.587 173.858 246.885 172.692 247.941 171.636C249.041 170.58 249.921 169.59 250.581 168.666C251.241 167.742 251.725 166.84 252.033 165.96C252.341 165.036 252.495 164.068 252.495 163.056C252.495 160.812 251.813 159.096 250.449 157.908C249.085 156.676 247.347 156.06 245.235 156.06C243.695 156.06 242.243 156.39 240.879 157.05C239.559 157.71 238.459 158.678 237.579 159.954C237.315 160.438 237.051 160.944 236.787 161.472C236.567 161.956 236.303 162.418 235.995 162.858Z" fill="#FF8080"/>
</g>
<defs>
<filter id="filter0_d_84_379" x="0" y="0" width="359" height="359" filterUnits="userSpaceOnUse" color-interpolation-filters="sRGB">
<feFlood flood-opacity="0" result="BackgroundImageFix"/>
<feColorMatrix in="SourceAlpha" type="matrix" values="0 0 0 0 0 0 0 0 0 0 0 0 0 0 0 0 0 0 127 0" result="hardAlpha"/>
<feOffset dy="4"/>
<feGaussianBlur stdDeviation="2"/>
<feComposite in2="hardAlpha" operator="out"/>
<feColorMatrix type="matrix" values="0 0 0 0 0 0 0 0 0 0 0 0 0 0 0 0 0 0 0.25 0"/>
<feBlend mode="normal" in2="BackgroundImageFix" result="effect1_dropShadow_84_379"/>
<feBlend mode="normal" in="SourceGraphic" in2="effect1_dropShadow_84_379" result="shape"/>
</filter>
<filter id="filter1_d_84_379" x="0" y="0" width="307.597" height="359" filterUnits="userSpaceOnUse" color-interpolation-filters="sRGB">
<feFlood flood-opacity="0" result="BackgroundImageFix"/>
<feColorMatrix in="SourceAlpha" type="matrix" values="0 0 0 0 0 0 0 0 0 0 0 0 0 0 0 0 0 0 127 0" result="hardAlpha"/>
<feOffset dy="4"/>
<feGaussianBlur stdDeviation="2"/>
<feComposite in2="hardAlpha" operator="out"/>
<feColorMatrix type="matrix" values="0 0 0 0 0 0 0 0 0 0 0 0 0 0 0 0 0 0 0.25 0"/>
<feBlend mode="normal" in2="BackgroundImageFix" result="effect1_dropShadow_84_379"/>
<feBlend mode="normal" in="SourceGraphic" in2="effect1_dropShadow_84_379" result="shape"/>
</filter>
</defs>
</svg>
